<svg id="Layer_1" data-name="Layer 1" xmlns="http://www.w3.org/2000/svg" viewBox="0 0 2340 2340"><defs><style>.cls-1{fill:#ef760e;}</style></defs><title>Artboard 5</title><path class="cls-1" d="M785.14,433.73c.39-14.94,1.64-60.61,36.41-73.72,34.2-12.83,67.44,20.26,73.73,27.08a28.55,28.55,0,0,1-41.6,39.1,83.68,83.68,0,0,0-9.79-8.25,131.34,131.34,0,0,0-1.68,17.47c-2.07,68.94,51.68,89.88,52.21,90A29,29,0,0,1,913,549.88C928.77,738,1076.76,798.94,1146,798.94s217.21-60.9,233-249.06a28.54,28.54,0,0,1,18.4-24.45c5.33-2.07,54.33-23.44,52.36-90a102.59,102.59,0,0,0-1.82-17.47,82.65,82.65,0,0,0-9.62,8.25,28.6,28.6,0,0,1-41.74-39.1c6.43-6.82,39.78-39.91,73.84-27.08,34.63,13.11,36,58.78,36.45,73.72,2.36,81.23-45.92,121.15-72.59,136.95-24.15,196.7-181.36,285.47-288.29,285.47s-264.1-88.77-288.4-285.47c-26.52-15.8-74.84-55.72-72.44-136.95ZM1146,965.47s60.72-13.4,60.72-67.58H1085.26c-.14,54.18,60.72,67.58,60.72,67.58Zm-1.68,533.67,118.83-96.45c-12.44-62-69.26-431.07-73.3-437.22-23.59,16.19-43.85,18.41-43.85,18.41s-20.23-2.22-43.82-18.41c-4.07,6.15-60.86,375.25-73.29,437.22ZM1345.47,429.66a21.93,21.93,0,0,1,15.36,6.43,21.12,21.12,0,0,1,6.15,15.37c-.43,19.83-3.79,86.41-33,110.28-18.69,15.09-47.89,24.55-76.08,24.55-27,0-49.57-8.64-63.8-24.12-15.22-16.76-25.41-51.82-31.27-77.91h-33.77c-5.86,26.09-15.94,61.15-31.27,77.91-14.12,15.48-36.88,24.12-63.83,24.12-28.19,0-57.36-9.46-75.94-24.55C928.91,538,925.41,471.4,925.16,451.46a21,21,0,0,1,6.11-15.37,21.67,21.67,0,0,1,15.22-6.43H1113.6a21.61,21.61,0,0,1,16.33,7.54,26.72,26.72,0,0,1,2.25,4.22H1160a17.44,17.44,0,0,1,2.22-4.22,21.66,21.66,0,0,1,16.22-7.54Zm-257.85,42.88H969.26c2.64,25.13,8.5,50,15.76,55.83,19.83,16.18,67.86,19.4,81.12,4.89,8-8.65,16-36,21.48-60.72Zm235.12,0H1204.2c5.43,24.7,13.68,52.07,21.65,60.72,13.12,14.51,61.26,11.29,81.09-4.89,7-5.72,13.12-30.7,15.8-55.83Zm52.6-143.23a28.73,28.73,0,0,0,26.41,30.7H1404a28.59,28.59,0,0,0,28.48-26.38c6.83-91.7-54.18-132.48-56.82-134.3a28.58,28.58,0,0,0-31.41,47.74c1.39,1.11,35.45,25.27,31.12,82.24Zm-468,42.7a28.63,28.63,0,0,0,28.59-28.62c0-135,108.75-141.42,120.61-141.67h244.59a28.63,28.63,0,1,0,0-57.25h-245c-61.43.82-177.44,43.42-177.44,198.92A28.64,28.64,0,0,0,907.29,372Zm-540,1064.59C391.59,1633.3,548.62,1722,655.69,1722S919.83,1633.3,944,1436.6c26.66-15.76,75-55.68,72.58-136.94-.42-15.09-1.82-60.58-36.41-73.7-34.06-12.86-67.44,20.23-73.87,27a28.63,28.63,0,0,0,41.74,39.2,68.9,68.9,0,0,1,9.79-8.36,125.31,125.31,0,0,1,1.64,17.58c2,66.44-47,88-52.32,90.06a28.57,28.57,0,0,0-18.44,24.27c-15.76,188.19-163.75,249-233,249s-217.21-60.86-233-249a28.53,28.53,0,0,0-18.44-24.27c-.54-.28-54.29-21.22-52.35-90.06a101.1,101.1,0,0,1,1.82-17.44,64.68,64.68,0,0,1,9.5,8.08,28.59,28.59,0,0,0,41.89-38.92c-6.44-6.86-39.67-40.1-73.87-27.09-34.6,13.12-36,58.61-36.42,73.7-2.5,81.26,45.92,121.18,72.44,136.94ZM594,1763.71c0,54.28,59.75,67.68,59.75,67.68s59.76-13.4,59.76-67.68Zm-29.45-12.15a28.56,28.56,0,0,0-38-13.69L464.46,1767l-5.72-103a28.6,28.6,0,0,0-57.11,3.18l1.26,22.08c-73.41,27.77-330.15,148-330.15,467a28.63,28.63,0,1,0,57.25,0c0-266.64,197.1-374.53,276.26-407.23l3.5,63.4a28.42,28.42,0,0,0,13.79,23,28.84,28.84,0,0,0,14.69,4.08,28.29,28.29,0,0,0,12.12-2.68l100.53-47.18a28.69,28.69,0,0,0,13.68-38.09ZM716,926.52A28.18,28.18,0,0,0,737,917.3c50.11-54.18,111.82-94.64,178.69-117.11A28.59,28.59,0,1,0,897.35,746c-75.8,25.55-145.88,71.33-202.42,132.48a28.63,28.63,0,0,0,1.68,40.34A28,28,0,0,0,716,926.52ZM323.33,2069.84a28.55,28.55,0,0,0-28.62,28.62v57.79a28.56,28.56,0,1,0,57.11,0v-57.79a28.54,28.54,0,0,0-28.49-28.62Zm664.76,0a28.67,28.67,0,0,0-28.63,28.62v57.79a28.63,28.63,0,0,0,57.26,0v-57.79a28.64,28.64,0,0,0-28.63-28.62ZM905.18,1689.3l1.25-22.08a28.6,28.6,0,0,0-57.11-3.18l-5.57,103-62.26-29.16a28.6,28.6,0,0,0-24.3,51.78l100.53,47.18a28.75,28.75,0,0,0,12.15,2.68,27.89,27.89,0,0,0,14.8-4.08,28.78,28.78,0,0,0,13.79-23L902,1749c79,32.7,276.29,140.59,276.29,407.23a28.54,28.54,0,1,0,57.07,0c0-319-256.7-439.18-330.14-466.95ZM398,1207.24a23.14,23.14,0,0,0,4.32.28,28.52,28.52,0,0,0,28.2-24.3c4.32-28.59,15.76-54.86,33.09-75.8A28.61,28.61,0,0,0,419.5,1071c-23.87,28.88-39.63,64.76-45.49,103.72a28.51,28.51,0,0,0,24,32.52Zm107.6-125.62h234c11.72.25,114.89,6.54,114.89,134.69a28.56,28.56,0,1,0,57.11,0c0-149.91-112-191.08-171.43-191.8H505.63a28.56,28.56,0,0,0,0,57.11Zm22.77-79.16h231c6,0,145.74.68,162.36,142.24a28.53,28.53,0,1,0,56.68-6.54c-18.16-155-151.89-193.77-219.32-192.81H528.4a28.56,28.56,0,1,0,0,57.11Zm779.26,818.32a28.55,28.55,0,0,0-28.49,28.63V2155a28.54,28.54,0,1,0,57.08,0V1849.41a28.57,28.57,0,0,0-28.59-28.63Zm717.25,0a28.61,28.61,0,0,0-28.63,28.63V2155a28.63,28.63,0,1,0,57.26,0V1849.41a28.7,28.7,0,0,0-28.63-28.63ZM1667.82,637.54h.14c150.64,0,282,114.9,309.92,265.78a49.57,49.57,0,0,1,14.51,2.83c34.77,13.11,36,58.61,36.42,73.69,2.39,81.12-45.93,121.19-72.59,136.94C1932.06,1313.49,1775,1402.12,1668,1402.12s-264.13-88.63-288.43-285.34c-26.52-15.75-75-55.71-72.59-136.94.57-14.94,1.82-60.58,36.6-73.69a49.08,49.08,0,0,1,14.51-2.83c27.91-150.88,159.28-265.78,309.77-265.78ZM1412.08,928.05c2.22,2.08,4.18,4,5.29,5a28.65,28.65,0,0,1-41.88,39.1,59.85,59.85,0,0,0-9.62-8.08,122.85,122.85,0,0,0-1.68,17.44c-2.11,69,51.79,89.91,52.22,90A28.65,28.65,0,0,1,1435,1096c15.8,188.19,163.75,248.91,233,248.91s217.22-60.86,233-248.91a28.59,28.59,0,0,1,18.44-24.45c5.43-2.07,54.28-23.44,52.35-90a103.76,103.76,0,0,0-1.82-17.44,92.42,92.42,0,0,0-9.65,8.22,28.6,28.6,0,0,1-41.74-39.1,65.83,65.83,0,0,1,5.32-5.15c-17-131.37-128-233.29-255.88-233.29s-238.87,101.92-255.88,233.29Zm67.83,173.51c-36.56-40.35-30.7-104.82-30.45-107.5a21.54,21.54,0,0,1,21.37-19.4h394.23a21.41,21.41,0,0,1,21.37,19.4c.28,2.68,6.14,67.15-30.45,107.64-18.83,20.8-44.78,31.27-76.91,31.27-32.81,0-58.89-10.75-77.91-31.8a105.77,105.77,0,0,1-16.19-25.84h-34c-4.19,9.08-9.22,17.87-16.34,25.84-18.83,21-45.1,31.8-77.76,31.8-32.24,0-58.07-10.47-76.91-31.41Zm192.91-69.22c-.53-5.18-1-10.19-1.25-14.8h-7.25c-.29,4.61-.68,9.47-1.4,14.8Zm41.64-14.65c1,16.18,4.86,39.34,18.83,55,10.62,11.73,25.55,17.45,45.78,17.45,19.69,0,34.49-5.58,45-17.19,14.22-15.62,18.55-38.78,19.69-55.25Zm-222.25,0c1.1,16.33,5.43,39.63,19.54,55.25,10.58,11.61,25.27,17.19,45.07,17.19,20.26,0,35.2-5.72,45.81-17.59,13.8-15.51,17.73-38.67,18.7-54.85Zm755.35,818.74v319.39a28.54,28.54,0,1,1-57.08,0V1836.43c0-171.43-78.48-277.53-153.7-340.22-129.27,134.73-253.38,203.13-368.82,203.13-116.43,0-241.51-69.4-371.92-206.2a416.24,416.24,0,0,0-148,266.24,28.59,28.59,0,0,1-56.68-7.54c24.44-181.08,148.24-330,323.46-388.79a28.6,28.6,0,0,1,30.84,8.65c1.11,1.25,115.43,134.16,222.25,134.16,106.64,0,217.65-132.48,218.75-133.87a28.37,28.37,0,0,1,30.27-9.22c3.22,1.11,330.58,103.85,330.58,473.66ZM1990,1462a448,448,0,0,0-72.87-38.24c-36.28,39.24-139.45,139.31-249.17,139.31-110,0-215.67-100.64-252.41-139.45a423.33,423.33,0,0,0-72.3,35.88c117,120.9,226.15,182.73,324.71,182.73,97.71,0,206.17-61,322-180.23ZM577.11,2011.62l167.11,79.73c-5-28.91-10.76-62.68-16.76-96.35l-135.13-69.51c-4.75,26.81-10,56.68-15.22,86.13Zm33.66-180.23c-.86,1.26-3.79,14.94-7.68,35.31l112,57.54c-9.07-51.1-16.61-90.45-18.15-92.85-23.19,16.19-43.14,18.3-43.14,18.3s-19.83-2.25-43-18.3Zm-58.64,324.86H747.58l-180.52-86c-6.43,37.13-12,68.93-14.93,86Zm106.78-846.12v135h-35a28.54,28.54,0,1,0,0,57.07h63.65a28.63,28.63,0,0,0,28.62-28.62V1310.13a28.63,28.63,0,1,0-57.25,0Zm0,0"/></svg>