<svg id="Layer_1" data-name="Layer 1" xmlns="http://www.w3.org/2000/svg" viewBox="0 0 2340 2340"><defs><style>.cls-1{fill:#ef760e;}</style></defs><title>Artboard 3</title><path class="cls-1" d="M2174.56,510,1839.15,174.58a37.57,37.57,0,0,0-52.92,0L1599.89,360.92a37.57,37.57,0,0,0,0,52.92l141.62,141.24L1626,670.24a662.51,662.51,0,0,0-303.36-155c-13.79-3.73-98.39-16-143.48-16-45.47,0-130.44,12.67-143.48,16C734.54,581.17,508.32,849.5,508.32,1170s226.22,588.83,527.34,654.79c12.67,3.35,98,16,143.48,16,12.3,0,25-.38,37.27-1.12V1207.27h633.92c-.37-7.46-.37-14.91-.37-21.25v-16c0-169.57-64.48-326.84-171.43-446.84l115.53-115.53L1935.3,749.25a37.79,37.79,0,0,0,52.92,0l186.34-186.34A37.57,37.57,0,0,0,2174.56,510ZM942.86,622.91a903.1,903.1,0,0,0-90.18,155c-30.19-20.12-52.92-39.13-68.21-53.66A592,592,0,0,1,942.86,622.91ZM731.93,776.83a589.59,589.59,0,0,0,92.79,71.55c-29.06,80.87-49.93,175.9-54,284.35h-186C593.29,996.7,647.33,873.35,731.93,776.83ZM584.72,1207.27h186c4.1,108.45,25,203.48,54,284.35a589,589,0,0,0-92.79,71.55C647.33,1466.65,593.29,1343.29,584.72,1207.27Zm200.13,408.82c15.28-14.53,38-33.54,68.2-53.29a884.73,884.73,0,0,0,89.81,154.29A597.77,597.77,0,0,1,784.85,1616.09Zm357,148.33a619.47,619.47,0,0,1-70.06-8.2c-32.42-33.54-99.5-111.8-152.8-230.69,58.14-28,132.68-50.68,222.86-55.9Zm0-369.32c-100.62,4.84-184.47,29.81-250.43,60.37a865.43,865.43,0,0,1-46.22-248.2h296.65Zm0-262.37H845.22c3.73-93.54,21.62-176.65,46.59-248.2,66,30.93,149.44,55.53,250.06,60.37Zm0-262.36c-90.56-4.85-164.72-27.58-222.86-55.16,53.3-119.26,120.38-197.52,153.17-231.43a613,613,0,0,1,69.69-8.2Zm432.31-146.84c-15.28,14.54-38.39,33.92-69.32,54a904.28,904.28,0,0,0-89.44-154.66A601,601,0,0,1,1574.18,723.53ZM1216.41,575.58a603.22,603.22,0,0,1,69.69,8.2c35,35.78,101.37,113.29,153.91,230.31-58.51,28-133,51.06-223.6,56.28Zm0,557.15V944.9c101-5.21,184.85-29.81,250.81-60.74,24.6,71.55,42.11,154.66,46.21,248.57Zm557.52,0H1588c-4.09-108.45-25.34-203.48-54.4-284.35,41.73-26.09,72.67-52.18,92.79-71.55A595.81,595.81,0,0,1,1773.93,1132.73Zm187.83-462.49L1678.9,387.38l133.79-133.79,282.86,282.86Z"/><rect class="cls-1" x="508.32" y="201.04" width="74.54" height="74.54"/><rect class="cls-1" x="359.25" y="201.04" width="74.54" height="74.54"/><rect class="cls-1" x="210.18" y="201.04" width="74.54" height="74.54"/><path class="cls-1" d="M98.38,424.65H530.16L668.31,562.8a37.27,37.27,0,0,0,63.62-26.35V89.24A37.26,37.26,0,0,0,694.66,52H98.38A37.26,37.26,0,0,0,61.11,89.24V387.38A37.26,37.26,0,0,0,98.38,424.65Zm37.27-298.14H657.39v320L571.94,361a37.27,37.27,0,0,0-26.35-10.92H135.65Z"/><rect class="cls-1" x="508.32" y="2064.42" width="74.54" height="74.54"/><rect class="cls-1" x="359.25" y="2064.42" width="74.54" height="74.54"/><rect class="cls-1" x="210.18" y="2064.42" width="74.54" height="74.54"/><path class="cls-1" d="M708.93,1769.12a37.09,37.09,0,0,0-40.62,8.08L530.16,1915.35H98.38a37.26,37.26,0,0,0-37.27,37.27v298.14A37.26,37.26,0,0,0,98.38,2288H694.66a37.26,37.26,0,0,0,37.27-37.27V1803.55A37.25,37.25,0,0,0,708.93,1769.12Zm-51.54,444.37H135.65v-223.6H545.59A37.27,37.27,0,0,0,571.94,1979l85.45-85.45Z"/><rect class="cls-1" x="1924.49" y="51.97" width="74.54" height="111.8"/><rect class="cls-1" x="2095.51" y="163.68" width="105.39" height="74.54" transform="translate(487.1 1577.87) rotate(-45)"/><rect class="cls-1" x="2185.37" y="350.11" width="111.8" height="74.54"/><path class="cls-1" d="M2249,1851.74l-291.31-291.32-71.88-251.58a37.26,37.26,0,0,0-62.18-16.12l-130.08,130.07-125-62.52a37.23,37.23,0,0,0-43,7l-111.81,111.8a37.3,37.3,0,0,0-7,43l62.52,125.05L1339.13,1777.2a37.27,37.27,0,0,0,16.1,62.2l251.63,71.89,41.33,41.33-160,160a37.25,37.25,0,0,0,0,52.7l111.8,111.8a37.25,37.25,0,0,0,52.7,0l160-160,85.45,85.45a36.94,36.94,0,0,0,10.76,7.5l14.21,6.55c36.08,17,73.75,25.52,111,25.52,46.42,0,92.17-13.14,133.37-39.24,74.93-47.49,121.5-130.69,121.5-217.13,0-43-11.7-86.61-33.85-126A37.88,37.88,0,0,0,2249,1851.74Zm-724.22-260.19-39.4-78.79,73.81-73.81,78.8,39.41-56.6,56.6Zm306.76-201.33,51.12,178.88-267.13,267.13-178.9-51.1Zm-205.17,807.84-59.1-59.1,133.64-133.64,59.1,59.1Zm52.7-320,245.44-245.44,245.44,245.45L1924.5,2123.52Zm448.52,261.86c-41.27,26.12-89.21,33.37-136,21.94l217.71-217.7a172.62,172.62,0,0,1,5.19,41.59C2214.43,2046.92,2181.14,2106,2127.57,2139.94Z"/><rect class="cls-1" x="1626.35" y="1244.54" width="74.54" height="111.8"/><rect class="cls-1" x="1328.21" y="1266.37" width="74.54" height="105.39" transform="translate(-532.78 1351.89) rotate(-45)"/><rect class="cls-1" x="1253.68" y="1542.68" width="111.8" height="74.54"/></svg>