<svg id="Layer_1" data-name="Layer 1" xmlns="http://www.w3.org/2000/svg" viewBox="0 0 2340 2340"><defs><style>.cls-1{fill:#ef760e;}</style></defs><title>Artboard 2</title><path class="cls-1" d="M2266.51,137.58H73.49a36.16,36.16,0,0,0-36.15,36.15V2149.86A36.16,36.16,0,0,0,73.49,2186h2193a36.16,36.16,0,0,0,36.15-36.15V1764.28a36.15,36.15,0,1,0-72.3,0v349.43H109.64V499.07H2230.36V1619.68a36.15,36.15,0,1,0,72.3,0V173.73a36.16,36.16,0,0,0-36.15-36.15ZM109.64,209.88h1337.5V426.77H109.64Zm1409.8,216.89V209.88h710.92V426.77Zm0,0"/><path class="cls-1" d="M1876.1,279.78a38.55,38.55,0,1,0,38.58,38.55,38.6,38.6,0,0,0-38.58-38.55Zm0,0"/><path class="cls-1" d="M1678.48,279.78a38.55,38.55,0,1,0,38.58,38.55,38.6,38.6,0,0,0-38.58-38.55Zm0,0"/><path class="cls-1" d="M2073.72,279.78a38.55,38.55,0,1,0,38.54,38.55,38.6,38.6,0,0,0-38.54-38.55Zm0,0"/><path class="cls-1" d="M754.13,1118.38a36.14,36.14,0,0,0,30.12-25.51l83.17-277.59a36.15,36.15,0,0,0-69.26-20.76l-59.64,199.1-57.49-96a36.13,36.13,0,0,0-62,0l-57.5,96-59.64-199a36.15,36.15,0,1,0-69.26,20.75l83.15,277.55a36.19,36.19,0,0,0,30.15,25.51,37.8,37.8,0,0,0,4.49.26,36.14,36.14,0,0,0,31-17.56L650,986.56l68.6,114.52a36.18,36.18,0,0,0,35.52,17.3Zm0,0"/><path class="cls-1" d="M1032,1118.33a37.85,37.85,0,0,0,4.49.28,36.14,36.14,0,0,0,31-17.58L1136,986.54l68.6,114.49a36.15,36.15,0,0,0,65.64-8.19l83.14-277.61a36.13,36.13,0,1,0-69.23-20.73l-59.64,199.07-57.49-96a36.19,36.19,0,0,0-62,0l-57.47,96L987.91,794.52a36.15,36.15,0,0,0-69.26,20.76l83.15,277.56a36.15,36.15,0,0,0,30.15,25.49Zm0,0"/><path class="cls-1" d="M1815.22,770.21a36.19,36.19,0,0,0-45,24.26l-59.63,199.08-57.49-95.95a36.14,36.14,0,0,0-62,0l-57.49,95.95-59.64-199a36.14,36.14,0,1,0-69.24,20.75l83.15,277.55a36.13,36.13,0,0,0,65.62,8.21l68.6-114.5,68.6,114.5a36.17,36.17,0,0,0,31,17.58,35.43,35.43,0,0,0,4.47-.29,36.16,36.16,0,0,0,30.14-25.5l83.18-277.59a36.17,36.17,0,0,0-24.24-45Zm0,0"/><path class="cls-1" d="M696.2,1323.48a36.15,36.15,0,0,0-36.14-36.15H467.26a36.16,36.16,0,0,0-36.15,36.15v192.79a36.15,36.15,0,0,0,36.15,36.15h192.8a36.14,36.14,0,0,0,36.14-36.15Zm-72.29,156.64H503.41V1359.63h120.5Zm0,0"/><path class="cls-1" d="M660.06,1624.72H467.26a36.16,36.16,0,0,0-36.15,36.15v192.79a36.15,36.15,0,0,0,36.15,36.15h192.8a36.14,36.14,0,0,0,36.14-36.15V1660.87a36.15,36.15,0,0,0-36.14-36.15Zm-36.15,192.79H503.41V1697h120.5Zm0,0"/><path class="cls-1" d="M1804.84,1383.73h-144.6a36.15,36.15,0,1,0,0,72.29h144.6a36.15,36.15,0,1,0,0-72.29Zm0,0"/><path class="cls-1" d="M1515.65,1383.73h-711a36.15,36.15,0,1,0,0,72.29h711a36.15,36.15,0,1,0,0-72.29Zm0,0"/><path class="cls-1" d="M1804.84,1721.11h-144.6a36.15,36.15,0,0,0,0,72.3h144.6a36.15,36.15,0,0,0,0-72.3Zm0,0"/><path class="cls-1" d="M1515.65,1721.11h-711a36.15,36.15,0,1,0,0,72.3h711a36.15,36.15,0,0,0,0-72.3Zm0,0"/></svg>